<?xml version="1.0" encoding="utf-8"?>
<svg version="1.1" id="Calque_1" xmlns="http://www.w3.org/2000/svg" x="0px"
     y="0px"
     viewBox="0 0 512 435" enable-background="new 0 0 512 435" xml:space="preserve">
<title>economie</title>
    <path d="M34.7,342.7v83c0,5.1,4.1,9.3,9.3,9.3h64.2c5.1,0,9.3-4.1,9.3-9.3v-146l-46.6,46.6
	C60.9,336.1,48.3,341.8,34.7,342.7z M149.4,278.6v147.1c0,5.1,4.1,9.3,9.3,9.3h64.2c5.1,0,9.3-4.1,9.3-9.3v-86.6
	c-14.6-0.3-28.3-6.1-38.6-16.4L149.4,278.6L149.4,278.6z M264,330v95.8c0,5.1,4.1,9.3,9.2,9.3h64.2c5.1,0,9.3-4.1,9.3-9.3V249.1
	l-73.5,73.5C270.3,325.5,267.3,327.9,264,330L264,330z M455.2,140.5L378.7,217v208.8c0,5.1,4.1,9.3,9.3,9.3h64.2
	c5.1,0,9.3-4.1,9.3-9.3V146.3c-2.1-1.8-3.7-3.4-4.8-4.4L455.2,140.5L455.2,140.5z M507.6,5c-3.1-3.3-7.7-5-13.6-5
	c-0.5,0-1.2,0-1.7,0c-29.9,1.4-59.6,2.8-89.5,4.2c-4,0.2-9.5,0.4-13.8,4.7c-1.4,1.4-2.4,3-3.3,4.8c-4.4,9.6,1.8,15.8,4.7,18.7
	l7.5,7.6c5.2,5.3,10.4,10.5,15.7,15.7L233.2,236.4l-81.1-81.1c-4.8-4.8-11.4-7.6-18.3-7.6c-6.9,0-13.4,2.7-18.2,7.6l-108,108
	c-10.1,10.1-10.1,26.4,0,36.5l4.8,4.8c4.8,4.8,11.4,7.6,18.3,7.6s13.4-2.7,18.2-7.6l84.9-84.9l81.1,81.1c4.8,4.8,11.4,7.6,18.3,7.6
	s13.4-2.7,18.3-7.6L455.2,97.1l23,22.9c2.7,2.7,6.5,6.5,12.3,6.5c2.4,0,4.8-0.6,7.4-2c1.7-0.9,3.2-2,4.4-3.3
	c4.5-4.5,5.4-10.3,5.6-14.8c0.8-19.4,1.8-38.7,2.7-58.2l1.4-29.1C512.3,13,510.9,8.3,507.6,5z"/>






</svg>
