<?xml version="1.0" encoding="utf-8"?>
<svg version="1.1" id="Calque_1" xmlns="http://www.w3.org/2000/svg" x="0px"
     y="0px"
     viewBox="0 0 378 512" enable-background="new 0 0 378 512" xml:space="preserve">
<title>sport</title>
    <path d="M347.7,0.1c-82.1,7.2-142.7,48.2-178,107.4c-23.7,29.7-71,120.2-88.2,167.6c-31.2,59-58.4,129.1-79.6,192.3
	c-13,38.7,45.4,63.9,58.5,25.1c15.9-47.3,35.1-98.5,56.9-145.9c21.6,48.2,43.5,96.3,67,143.6c18.2,36.7,73.1,4.5,54.9-32.1
	c-24.2-48.7-46.7-98.2-68.9-147.9c0.3-1,0.6-1.9,0.9-2.9c3.7,1.1,7.8,1.4,12.3,0.5c33.9-6.4,67.8-12.7,101.8-19.1
	c14.5-2.7,20.1-18.6,17.8-31.3c-6.8-38-28.5-64.5-55.5-89.6c-4-13.6-17.4-25.7-32.2-37.6c30.1-48.6,79.1-75,143-80.6
	C390.9,47,380-2.7,347.7,0.1L347.7,0.1z M224.1,216.4c8.4,8.7,15.5,17.9,20.9,28.5c-16.4,3.1-32.8,6.1-49.2,9.2
	C204.1,240.8,213.6,228.2,224.1,216.4z M338,129.4c0,24.1-19.6,43.7-43.7,43.7c-24.1,0-43.7-19.6-43.7-43.7s19.6-43.7,43.7-43.7
	C318.5,85.7,338,105.3,338,129.4z"/>
</svg>
