<?xml version="1.0" encoding="utf-8"?>
<svg version="1.1" id="Calque_1" xmlns="http://www.w3.org/2000/svg" x="0px"
     y="0px"
     viewBox="0 0 512 391" enable-background="new 0 0 512 391" xml:space="preserve">
<title>education</title>
    <path d="M78.3,0C78.3,0,78.3,0,78.3,0c-4.9,0-9.4,1.9-12.9,5.3c-3.5,3.5-5.4,8.1-5.4,13v274.6
	c0,10.1,8.2,18.3,18.3,18.3c42.6,0.1,114.1,9,163.4,60.5V84.4c0-3.4-0.9-6.6-2.5-9.3C198.8,10,121.1,0.1,78.3,0L78.3,0z M452,292.9
	V18.3c0-4.9-1.9-9.5-5.4-13c-3.4-3.4-8-5.3-12.8-5.3c0,0,0,0-0.1,0C391,0.1,313.2,10,272.8,75.1c-1.6,2.7-2.5,5.9-2.5,9.3v287.4
	c49.3-51.5,120.7-60.4,163.4-60.5C443.8,311.2,452,303,452,292.9z M493.7,63.3h-13.3v229.6c0,25.7-21,46.7-46.7,46.7
	c-36.2,0.1-95.8,7.2-138.1,47.1c73.1-17.9,150.1-6.3,194,3.7c5.5,1.2,11.1,0,15.5-3.5c4.4-3.5,6.9-8.7,6.9-14.3v-291
	C512,71.5,503.8,63.3,493.7,63.3L493.7,63.3z M31.6,292.9V63.3H18.3C8.2,63.3,0,71.6,0,81.7v291c0,5.6,2.5,10.8,6.9,14.3
	s10.1,4.8,15.5,3.5c43.9-10,120.9-21.6,194-3.7c-42.2-40-101.9-47-138.1-47.1C52.6,339.6,31.6,318.7,31.6,292.9L31.6,292.9z"/>






</svg>
