<?xml version="1.0" encoding="utf-8"?>
<svg version="1.1" id="Calque_1" xmlns="http://www.w3.org/2000/svg" x="0px"
     y="0px"
     viewBox="0 0 512 512" enable-background="new 0 0 512 512" xml:space="preserve">
<title>ecologie</title>
    <path d="M511.1,27.9c-1.6-4-5.5-6.6-9.9-6.6c-80,0-153.1,25.3-195.3,67.5c-24.4,24.4-34,60.5-25.1,94.3
	c1.1,4.1,4.6,7.2,8.8,7.8c4.3,0.6,8.4-1.4,10.6-5.1c19.5-32.5,43.6-63.2,71.6-91.2c4.2-4.2,10.9-4.2,15.1,0c4.2,4.2,4.2,10.9,0,15.1
	c-8.2,8.2-15.6,16.3-22.7,24.4c-0.7,0.8-1.3,1.6-2,2.4c-40,46.3-62.3,89.4-73.8,117.2C274.7,210.5,248.7,136,225,104.5
	c14.6-21.2,12.6-50.4-6.2-69.2C196.3,12.9,159.4,0,117.4,0c-4.3,0-8.2,2.6-9.9,6.6c-1.7,4-0.7,8.6,2.3,11.6
	c9.7,9.7,12.8,28.8,15.8,47.2c3.1,18.7,6,36.4,16.3,46.8c10.6,10.6,24.5,15.9,38.4,15.9c10.2,0,20.4-2.9,29.2-8.6
	c24.8,34.7,57,133.7,68.2,171.7c1.3,4.6,5.5,7.7,10.2,7.7c0.1,0,0.2,0,0.3,0c4.8-0.1,9-3.5,10.1-8.2c0.1-0.4,5.4-21.4,21.2-52.7
	c16.9,11.9,36.4,18.1,56,18.1c25,0,49.9-9.6,68.9-28.6c18.3-18.3,23.8-52,29.7-87.7c6.3-38.5,12.9-78.4,34.7-100.2
	C511.9,36.5,512.8,31.9,511.1,27.9L511.1,27.9z M124.7,259.5c-18.3-17.4-91.4-22.9-113.4-24.3c-3,0-5.8,0.9-8,2.9S0,243,0,245.9
	v213.5c0,5.9,4.8,10.7,10.7,10.7h64c4.6,0,8.7-3,10.1-7.4c1.6-4.8,38.3-139.1,43.2-194.6C128.2,265,127,261.8,124.7,259.5
	L124.7,259.5z M448,374.2l-74.7,31.9c-20.7,1-63.7-0.3-74.7-0.2c-10.8,0.2-66.2-17.6-57.5-21.2c1.8-0.7,6.4-0.9,14.9-0.2
	c48.7,4,128,13.9,128-21.3s-85.9-42.7-106.7-42.7c-20.8,0-55.5-18.6-85.3-21.3c-11.8-1.1-28.1-2.7-44.6-3.7
	c-6.7,45.9-26.4,112.4-36.5,145L224,491.6c42.3,16,71.1,36.5,160,0c0,0,128-54.4,128-85.4C512,380.6,482.7,362.2,448,374.2
	L448,374.2z"/>






</svg>
