<?xml version="1.0" encoding="utf-8"?>
<svg version="1.1" id="Calque_1" xmlns="http://www.w3.org/2000/svg" x="0px"
     y="0px"
     viewBox="0 0 512 512" enable-background="new 0 0 512 512" xml:space="preserve">
<title>amenagement-urbain</title>
    <path d="M496.9,482h-15v-91h-90v91h-60v-61h15c8.3,0,15-6.7,15-15v-30c0-24.8-20.2-45-45-45h-15v-30h15
	c8.3,0,15-6.7,15-15v-60c0-24.8-20.2-45-45-45H75c-24.8,0-45,20.2-45,45v60c0,8.3,6.7,15,15,15h15v30H45c-24.8,0-45,20.2-45,45v30
	c0,8.3,6.7,15,15,15h15v61H15c-8.3,0-15,6.7-15,15s6.7,15,15,15c166.7,0,286.6,0,481.9,0c8.3,0,15-6.7,15-15S505.1,482,496.9,482z
	 M90,301h181.9v30H90C90,331,90,301,90,301z M301.9,482H60v-61h241.9V482z M510.3,68.3l-30-60c-2.6-5.1-7.7-8.3-13.4-8.3h-60
	c-5.7,0-10.9,3.2-13.4,8.3l-30,60c-4.7,9.5,0.6,21.7,15.7,21.7l8.7,53.4c3,18.2,16.7,31.6,34,35.7v124.6c-17.4,6.2-30,22.7-30,42.2
	v15h90v-15c0-19.5-12.6-36-30-42.2V179.1c17.2-4.1,30.9-17.6,34-35.7l8.7-53.4C510.1,90,514.9,77.5,510.3,68.3L510.3,68.3z
	 M456.3,138.5c-1.2,7.3-7.4,12.5-14.8,12.5h-9.2c-7.4,0-13.6-5.3-14.8-12.5L409.6,90h54.6L456.3,138.5L456.3,138.5z"/>






</svg>
