<?xml version="1.0" encoding="utf-8"?>
<svg version="1.1" id="Calque_1" xmlns="http://www.w3.org/2000/svg" x="0px"
     y="0px"
     viewBox="0 0 512 512" enable-background="new 0 0 512 512" xml:space="preserve">
<title>logement</title>
    <path d="M0,60.2V512h201.7V353.4h108.5V512H512V60.2C512,60.2,0,60.2,0,60.2z M150.4,427.7H41.9v-74.3h108.5V427.7z
	 M150.4,302H41.9v-74.3h108.5V302z M150.4,176.4H41.9v-74.3h108.5V176.4z M310.3,302L310.3,302H201.7v-74.3h108.5V302z M310.3,176.4
	L310.3,176.4H201.7v-74.3h108.5V176.4z M470.1,427.7H361.6v-74.3h108.5C470.1,353.4,470.1,427.7,470.1,427.7z M470.1,302H361.6
	v-74.3h108.5C470.1,227.7,470.1,302,470.1,302z M470.1,176.4H361.6v-74.3h108.5C470.1,102.1,470.1,176.4,470.1,176.4z M22.8,0h466.3
	v29.8H22.8C22.8,29.8,22.8,0,22.8,0z"/>






</svg>
