<?xml version="1.0" encoding="utf-8"?>
<svg version="1.1" id="Calque_1" xmlns="http://www.w3.org/2000/svg" x="0px"
     y="0px"
     viewBox="0 0 512 444" enable-background="new 0 0 512 444" xml:space="preserve">
<title>culture</title>
    <path d="M502.8,147.5c-0.9-3.5-3.2-6.5-6.5-8.3c-3.2-1.7-7-2-10.4-0.8c-30.2,10.6-76.7,17.4-129.1,17.4
	c-12.7,0-25-0.5-36.9-1.3c-6.1,27.8-16,53.3-28.5,75.8c0.6,0,1.2-0.1,1.8-0.1c16.3,0,29.5-1.4,29.5,9.6c0,11-13.2,30.1-29.5,30.1
	c-9.5,0-17.8-3.1-23.2-7.8c-16.3,20.2-35.2,36.1-56.2,46.7c23.6,79.4,78.7,135.2,143,135.2c85.7,0,155.2-99.1,155.2-221.5
	C512,196.1,508.7,170.9,502.8,147.5z M418.7,379.3c-0.3,1.2-1.1,2.1-2.3,2.5s-2.4,0.1-3.3-0.6c-12.1-10.2-32.7-16.9-56.2-16.9
	c-23.6,0-44.2,6.8-56.3,16.9c-0.9,0.8-2.2,1-3.3,0.6s-2-1.3-2.3-2.5c-1-4.3-1.6-8.7-1.6-13.2c0-35.1,28.4-63.5,63.5-63.5
	s63.5,28.4,63.5,63.5C420.3,370.7,419.7,375.1,418.7,379.3L418.7,379.3z M420.4,270c-16.3,0-29.5-19.1-29.5-30.1
	c0-10.9,13.2-9.6,29.5-9.6c16.3,0,29.5,8.9,29.5,19.8S436.7,270,420.4,270z M310.4,84.9c0-26.4-3.3-51.6-9.2-75.1
	c-0.9-3.5-3.2-6.5-6.5-8.3c-1.9-1-4-1.5-6.1-1.5c-1.5,0-2.9,0.2-4.3,0.7c-30.2,10.6-76.7,17.4-129.1,17.4S56.3,11.4,26.2,0.7
	C24.8,0.3,23.3,0,21.9,0c-2.1,0-4.2,0.5-6.2,1.5c-3.2,1.7-5.6,4.7-6.5,8.3C3.3,33.3,0,58.5,0,84.9c0,122.3,69.5,221.5,155.2,221.5
	S310.4,207.2,310.4,84.9L310.4,84.9z M62.2,112.4c0-11,13.2-19.8,29.5-19.8s29.5,19.1,29.5,30.1c0,11-13.2,9.6-29.5,9.6
	S62.2,123.3,62.2,112.4z M155.2,264.4c-35,0-63.5-28.4-63.5-63.5c0-4.6,0.6-9,1.6-13.2c0.3-1.2,1.1-2.1,2.3-2.5
	c1.1-0.4,2.4-0.1,3.3,0.6c12.1,10.2,32.7,16.9,56.3,16.9s44.2-6.8,56.3-16.9c0.9-0.8,2.2-1,3.3-0.6c1.1,0.4,2,1.3,2.3,2.5
	c1,4.3,1.6,8.7,1.6,13.2C218.7,236,190.3,264.4,155.2,264.4L155.2,264.4z M189.4,122.6c0-11,13.2-30.1,29.5-30.1s29.5,8.9,29.5,19.8
	s-13.2,19.8-29.5,19.8S189.4,133.6,189.4,122.6z"/>






</svg>
