<?xml version="1.0" encoding="utf-8"?>
<svg version="1.1" id="Calque_1" xmlns="http://www.w3.org/2000/svg" x="0px"
     y="0px"
     viewBox="0 0 405 512" enable-background="new 0 0 405 512" xml:space="preserve">
<title>emploi</title>
    <path d="M319.6,193.2c-25.2,43.8-67.7,77.6-117.1,77.6s-91.9-33.9-117.1-77.6C35,217.2,0,268.4,0,328.1v132.8
	C0,489.1,22.9,512,51,512h303c28.2,0,51-22.9,51-51.1V328.1C405,268.4,370.1,217.1,319.6,193.2L319.6,193.2z M290.4,319.1l-94.1,123
	c-3.5,4.5-8.6,7.4-14.2,8c-0.7,0.1-1.5,0.1-2.3,0.1c-4.8,0-9.6-1.7-13.3-4.8l-56-46.9c-8.8-7.4-10-20.4-2.6-29.2
	c7.3-8.8,20.4-10,29.2-2.6l39.4,33l80.9-105.8c7-9.1,20-10.8,29.1-3.9C295.6,297,297.3,310,290.4,319.1L290.4,319.1z M202.5,236.5
	c59.2,0,107.1-70,107.1-129.2C309.6,48,261.6,0,202.5,0C143.3,0,95.4,48,95.4,107.3C95.4,166.5,143.3,236.5,202.5,236.5z"/>






</svg>
