<?xml version="1.0" encoding="utf-8"?>
<svg version="1.1" id="Calque_1" xmlns="http://www.w3.org/2000/svg" x="0px"
     y="0px"
     viewBox="0 0 512 432" enable-background="new 0 0 512 432" xml:space="preserve">
<title>famille</title>
    <path d="M511.4,126.7c-0.1-22.1-18.2-40-40.2-40c-7.8,0-76.9,0-85.1,0c-17.1,0-32.8,9.3-40.9,24.3l-5.9,10.9
	c2.3,5.4,3.5,11.3,3.5,17.5c0,9.9-3.2,19.1-8.6,26.5c6.1,0.5,11.9,2.3,17.2,5l23.7-43.8c0.6-1.1,1.9-1.7,3.1-1.4
	c1.2,0.3,2.1,1.4,2.1,2.7v283c0,11.3,9.1,20.4,20.4,20.4c11.3,0,20.4-9.1,20.4-20.4v-163h8.8v163c0,11.3,9.1,20.4,20.4,20.4
	s20.4-9.1,20.4-20.4c0-263.4-0.4-123.9-0.4-284.5c0-1.9,1.6-3.5,3.5-3.6c1.9,0,3.6,1.5,3.6,3.5l0.6,124.9c0.1,9.4,7.7,16.9,17,16.9
	c0,0,0.1,0,0.1,0c9.4-0.1,17-7.7,16.9-17.1C512,251.6,511.4,126.7,511.4,126.7z M359.3,210.9c-0.1-15.9-13.1-28.9-29-28.9h-65.9
	c-15.9,0-29,13-29.1,28.9c0,5,0,0.7-0.1,24.1l-13.5-2.8c0,0-30.3-83.3-41.1-114.8c-8-23.2-21.3-34.9-39.7-34.9
	c-25.5,0-33.4,0-59.5,0c-18.4,0-31.7,11.7-39.7,34.9C29.4,153.2,1.3,229.9,1,230.7c-3.3,8.9,1.3,18.8,10.2,22s18.8-1.3,22-10.2
	c0.2-0.7,20.4-55.7,34.1-94.6c-0.9,7.5,2-8.3-24.4,127.8c-1.1,5.9,3.4,11.4,9.4,11.4c3.7,0,8.1,0,13.1,0v124.5
	c0,11.4,9.2,20.6,20.6,20.6s20.6-9.2,20.6-20.6V287c3,0,5.9,0,8.9,0v124.5c0,11.4,9.2,20.6,20.6,20.6s20.6-9.2,20.6-20.6V287
	c5,0,9.4,0,13.1,0c6,0,10.5-5.5,9.4-11.4c-26.4-136.1-23.5-120.2-24.4-127.8c13.7,38.9,33.9,93.9,34.1,94.6
	c2.5,6.7,8.7,11,15.5,11.2c13.7,2.8,23.8,4.9,40.5,8.3c7.6,1.6,14.7-4.2,14.7-11.9c0,0,0.2-34.5,0.2-38.5c0-1.3,1.1-2.4,2.4-2.3
	s2.4,1.1,2.4,2.4c0,33.1,0,191.9,0,205.7c0,8.1,6.6,14.7,14.7,14.7c8.1,0,14.7-6.6,14.7-14.7c0-14.6,0-102.9,0-117.7h6.4
	c0,14.8,0,103.1,0,117.7c0,8.1,6.6,14.7,14.7,14.7c8.1,0,14.7-6.6,14.7-14.7c0-84.6-0.2-184.1-0.3-206.2c0-1.4,1.1-2.6,2.6-2.6
	s2.6,1.1,2.6,2.5l0.5,90.1c0,6.8,5.5,12.2,12.3,12.2c0,0,0.1,0,0.1,0c6.8,0,12.2-5.5,12.2-12.3c0,0,0,0,0-0.1
	C359.6,282.3,359.4,227.7,359.3,210.9L359.3,210.9z M460.9,36.1c0,19.5-15.8,35.2-35.2,35.2c-19.5,0-35.2-15.8-35.2-35.2
	s15.8-35.2,35.2-35.2C445.1,0.9,460.9,16.7,460.9,36.1z M329.4,139.5c0,17.7-14.3,32-32,32s-32-14.3-32-32s14.3-32,32-32
	S329.4,121.8,329.4,139.5z M111.1,0C91.5,0,75.5,15.9,75.5,35.6c0,19.6,15.9,35.6,35.6,35.6s35.6-16,35.6-35.6
	C146.7,16,130.8,0,111.1,0z"/>






</svg>
