<?xml version="1.0" encoding="utf-8"?>
<svg version="1.1" id="Calque_1" xmlns="http://www.w3.org/2000/svg" x="0px"
     y="0px"
     viewBox="0 0 512 336" enable-background="new 0 0 512 336" xml:space="preserve">
<title>numerique</title>
    <path d="M511.4,286.6c-0.5-0.6-1.2-0.9-2-0.9H2.6c-0.8,0-1.5,0.3-2,0.9s-0.7,1.3-0.6,2.1c0.1,0.5,7.7,47.4,67,47.4
	h377.9c59.3,0,67-46.9,67-47.4C512.1,287.9,511.9,287.1,511.4,286.6z M294.1,319.6h-76.2v-17.5h76.2V319.6z M55.2,267.4h401.5
	c5.8,0,10.5-4.7,10.5-10.5V10.5c0-5.8-4.7-10.5-10.5-10.5H55.2c-5.8,0-10.5,4.7-10.5,10.5v246.4C44.7,262.7,49.4,267.4,55.2,267.4z
	 M81.5,36.8h348.9v193.9H81.5C81.5,230.7,81.5,36.8,81.5,36.8z"/>

</svg>
