<?xml version="1.0" encoding="utf-8"?>
<svg version="1.1" id="Calque_1" xmlns="http://www.w3.org/2000/svg" x="0px"
     y="0px"
     viewBox="0 0 468 512" enable-background="new 0 0 468 512" xml:space="preserve">
<title>transport</title>
    <path d="M444.3,125.2c-4.2-40.9-10.8-72.7-21.4-85.2C379.5-11.4,75.6-15.2,41.1,40c-8.4,13.5-14.4,45.2-18.3,85.3
	C10,126.8,0,137.6,0,150.8v50.1c0,11.1,7,20.5,16.9,24.2c-2.3,78.8-0.4,161.1,3.1,202c0,31.6,21.2,26.3,21.2,26.3H61v34.1
	c0,13.5,13.9,24.5,31.1,24.5s31.1-10.9,31.1-24.5v-34.1h231.1v34.1c0,13.5,13.9,24.5,31.1,24.5c17.1,0,31.1-10.9,31.1-24.5v-34.1
	h6.5c0,0,24.9,3.4,26.5-11.4c0-40.8,2.6-131.2,0.5-216.6c10.5-3.3,18.1-12.9,18.1-24.5v-50.1C468,137.3,457.5,126.3,444.3,125.2
	L444.3,125.2z M115.4,47.3h233.4v35.3H115.4C115.4,82.7,115.4,47.3,115.4,47.3z M118.7,413.2c-18.3,0-33.2-14.9-33.2-33.2
	c0-18.3,14.9-33.2,33.2-33.2s33.2,14.9,33.2,33.2C151.9,398.3,137,413.2,118.7,413.2z M347.5,413.2c-18.3,0-33.2-14.9-33.2-33.2
	c0-18.3,14.9-33.2,33.2-33.2c18.3,0,33.2,14.9,33.2,33.2C380.6,398.3,365.8,413.2,347.5,413.2z M389.6,267.8H74.4V102.3h315.2V267.8
	z"/>
</svg>
