<?xml version="1.0" encoding="utf-8"?>
<svg version="1.1" id="Calque_1" xmlns="http://www.w3.org/2000/svg" x="0px"
     y="0px"
     viewBox="0 0 426 512" enable-background="new 0 0 426 512" xml:space="preserve">
<path d="M213,177.8c35.8,0,64.9-29.1,64.9-64.9S248.7,47.9,213,47.9s-64.9,29.1-64.9,64.9S177.2,177.8,213,177.8z
	 M213,81.9c17.1,0,30.9,13.9,30.9,31s-13.9,31-30.9,31s-31-13.9-31-31S195.9,81.9,213,81.9z M213,321.6c35.8,0,64.9-29.1,64.9-64.9
	s-29.1-64.9-64.9-64.9s-64.9,29.1-64.9,64.9S177.2,321.6,213,321.6z M213,225.7c17.1,0,30.9,13.9,30.9,31s-13.9,31-30.9,31
	s-31-13.9-31-31S195.9,225.7,213,225.7z M213,465.5c35.8,0,64.9-29.1,64.9-64.9s-29.1-64.9-64.9-64.9s-64.9,29.1-64.9,64.9
	C148.1,436.4,177.2,465.5,213,465.5z M213,369.6c17.1,0,30.9,13.9,30.9,31c0,17.1-13.9,30.9-30.9,30.9s-31-13.9-31-30.9
	C182,383.5,195.9,369.6,213,369.6z M353,315.9c9.4,0,17-7.6,17-17v-21l51.1-51.1c4.8-4.9,6.3-12.2,3.7-18.5
	c-2.6-6.4-8.8-10.5-15.7-10.5h-83.2v-22.1H353c9.4,0,17-7.6,17-17v-21L421,86.8c4.8-4.9,6.3-12.2,3.7-18.5
	c-2.6-6.4-8.8-10.5-15.7-10.5h-83.2V17c0-9.4-7.6-17-17-17H117.1c-9.4,0-17,7.6-17,17v40.8H17c-6.9,0-13,4.1-15.7,10.5
	S0.1,81.9,5,86.8l51,51.1v21c0,9.4,7.6,17,17,17h27.2v22.1H17c-6.9,0-13,4.1-15.7,10.5S0.1,222,5,226.8l51,51.1v21
	c0,9.4,7.6,17,17,17h27.2v22.1H17c-6.9,0-13,4.1-15.7,10.5c-2.6,6.4-1.2,13.7,3.7,18.5L56,418v21c0,9.4,7.6,17,17,17h27.2v39
	c0,9.4,7.6,17,17,17h191.7c9.4,0,17-7.6,17-17v-39H353c9.4,0,17-7.6,17-17V418l51.1-51.1c4.8-4.8,6.3-12.1,3.7-18.5
	c-2.6-6.4-8.8-10.5-15.7-10.5h-83.2v-22.1H353z M368,231.8L341,258.9c-3.2,3.2-4.9,7.5-4.9,12v11h-10.2v-50.1L368,231.8L368,231.8z
	 M368,91.7L341,118.8c-3.2,3.2-4.9,7.5-4.9,12v11.1h-10.2V91.7H368z M89.9,141.8v-11.1c0-4.5-1.8-8.8-4.9-12L58,91.7h42.2v50.1
	L89.9,141.8z M89.9,281.9v-11.1c0-4.5-1.8-8.8-4.9-12l-27-27.1h42.2v50.1L89.9,281.9z M89.9,422V411c0-4.5-1.8-8.8-4.9-12l-27-27.1
	h42.2V422H89.9z M291.8,478.1H134.1V34h157.7V478.1z M368,371.9L341,399c-3.2,3.2-4.9,7.5-4.9,12V422h-10.2v-50.1H368z"/>






</svg>
