<?xml version="1.0" encoding="utf-8"?>
<svg version="1.1" id="Calque_1" xmlns="http://www.w3.org/2000/svg" x="0px"
     y="0px"
     viewBox="0 0 512 385" enable-background="new 0 0 512 385" xml:space="preserve">
<title>vehicule</title>
    <path d="M385.6,15.6c0-8.8,6.6-15.6,15.6-15.6c8.1,0,15.6,7.4,15.6,15.6s-6.6,15.6-15.6,15.6
	C392.2,31.1,385.6,24.3,385.6,15.6z M495.1,257.9v60.6c0,14.7-11.1,20.7-22.9,20.7h-51c-1.4,25.9-22.9,45.8-48.8,45.8
	c-25.9,0-47.4-19.9-49.5-45.8H145.5c-1.4,25.9-22.9,45.8-48.8,45.8c-25.9,0-46.6-19.9-48.8-45.8H21.3C2.9,339.2,0,330.4,0,318.6
	v-58.3c0-10.3,0.7-17.7,5.9-28.1l51.7-102c5.9-12.6,21.3-22.9,35.5-22.9h196.5c14,0,27.3,8.8,35.5,22.9l46.6,76.1l93.8,20.6
	C489.8,230.7,494.3,245.4,495.1,257.9L495.1,257.9L495.1,257.9z M124.1,334c0-14.7-11.8-26.5-26.5-26.5S71.1,319.3,71.1,334
	c0,14.7,11.8,26.5,26.5,26.5S124.1,348.9,124.1,334z M177.2,136h-72.4c-11.8,0.7-17,5.2-23.7,17.7l-22.9,51.7h118.9V136
	C177.1,136,177.2,136,177.2,136z M333.1,205.4l-31-51.7c-5.9-9.6-14.7-17.7-28.1-17.7h-65.8c0,0,0,68.7,0,69.4H333.1z M398.9,334
	c0-14.7-11.1-26.5-25.8-26.5s-26.5,11.8-26.5,26.5c0,14.7,11.8,26.5,26.5,26.5C387.1,360.7,398.9,348.9,398.9,334z M472,69.5
	c0.8-2.9,1.5-5.2,1.5-8.8c0-14.7-11.8-26.5-26.5-26.5c-14.7,0-27.3,11.8-27.3,27.3c0,10.4,5.9,19.9,15.6,23.7
	c-6.6,7.4-10.4,17.8-10.4,28.1c0,3.8,0.8,7.4,1.5,11.1c-16.3,0.8-28.9,14-28.9,30.3c0,17,13.3,30.3,30.3,30.3
	c16.3,0,29.7-13.3,30.3-29.6c3.8,0.7,6.6,1.4,10.4,1.4c24.4,0,43.6-19.9,43.6-43.6C512.1,90.2,494.3,71,472,69.5L472,69.5z"/>
</svg>
