<?xml version="1.0" encoding="utf-8"?>
<svg version="1.1" id="Calque_1" xmlns="http://www.w3.org/2000/svg" x="0px"
     y="0px"
     viewBox="0 0 469 512" enable-background="new 0 0 469 512" xml:space="preserve">
<title>poubelle</title>
    <path d="M170.5,416V181.3c0-3.1-1-5.7-3-7.7c-2-2-4.6-3-7.7-3h-21.3c-3.1,0-5.7,1-7.7,3c-2,2-3,4.5-3,7.7V416
	c0,3.1,1,5.7,3,7.7c2,2,4.6,3,7.7,3h21.3c3.1,0,5.7-1,7.7-3C169.5,421.7,170.5,419.1,170.5,416z M255.8,416V181.3c0-3.1-1-5.7-3-7.7
	c-2-2-4.5-3-7.6-3h-21.3c-3.1,0-5.7,1-7.7,3s-3,4.6-3,7.7V416c0,3.1,1,5.7,3,7.7c2,2,4.6,3,7.7,3h21.3c3.1,0,5.6-1,7.6-3
	C254.8,421.7,255.8,419.1,255.8,416z M341.1,416V181.3c0-3.1-1-5.7-3-7.7c-2-2-4.5-3-7.7-3h-21.3c-3.1,0-5.6,1-7.6,3
	c-2,2-3,4.6-3,7.7V416c0,3.1,1,5.7,3,7.7c2,2,4.5,3,7.6,3h21.3c3.1,0,5.7-1,7.7-3C340.1,421.7,341.1,419.1,341.1,416z M159.9,85.3
	h149.2l-16-39c-1.6-2-3.5-3.2-5.7-3.6H181.8c-2.2,0.4-4.1,1.7-5.7,3.6C176.2,46.3,159.9,85.3,159.9,85.3z M469,96v21.3
	c0,3.1-1,5.7-3,7.7c-2,2-4.5,3-7.7,3h-32v316c0,18.4-5.2,34.4-15.6,47.8c-10.4,13.4-23,20.2-37.6,20.1H95.9
	c-14.7,0-27.2-6.5-37.6-19.5s-15.6-28.7-15.6-47.1V128h-32c-3.1,0-5.6-1-7.7-3c-2-2-3-4.6-3-7.7V96c0-3.1,1-5.7,3-7.7
	c2-2,4.5-3,7.7-3h102.9l23.3-55.7c3.3-8.2,9.3-15.2,18-21c8.7-5.8,17.4-8.7,26.3-8.7h106.6c8.8,0,17.6,2.9,26.3,8.7s14.7,12.8,18,21
	l23.3,55.7h102.9c3.1,0,5.6,1,7.6,3C468,90.4,469,92.9,469,96C469,96,469,96,469,96z"/>






</svg>
