<?xml version="1.0" encoding="utf-8"?>
<svg version="1.1" id="Calque_1" xmlns="http://www.w3.org/2000/svg" x="0px"
     y="0px"
     viewBox="0 0 512 394" enable-background="new 0 0 512 394" xml:space="preserve">
<title>voirie</title>
    <path d="M265.3,0c0.4,10.9,0.9,21.8,1.3,32.7c-8.5,0-12.7,0-21.2,0c0.4-10.9,0.9-21.8,1.3-32.7c-17.2,0-34.4,0-51.6,0
	C160.5,131.3,126,262.7,91.4,394c46.5,0,93,0,139.5,0c0.4-10.9,0.9-21.8,1.3-32.7c15.9,0,31.7,0,47.6,0c0.4,10.9,0.9,21.8,1.3,32.7
	c46.5,0,93,0,139.5,0C386,262.7,351.4,131.3,316.9,0C299.7,0,282.5,0,265.3,0z M243.4,81.6c8.4,0,16.7,0,25.1,0
	c1.2,30.3,2.4,60.6,3.6,90.9c-10.8,0-21.6,0-32.4,0C241,142.2,242.2,111.9,243.4,81.6z M234.2,312.4c1.2-30.3,2.4-60.6,3.6-90.9
	c12.1,0,24.2,0,36.4,0c1.2,30.3,2.4,60.6,3.6,90.9C263.3,312.4,248.7,312.4,234.2,312.4z M350.7,0c-7,0-10.5,0-17.6,0
	c43.8,131.3,87.6,262.7,131.4,394c15.8,0,31.6,0,47.5,0C458.2,262.7,404.4,131.3,350.7,0C350.7,0,350.7,0,350.7,0z M161.3,0
	C107.5,131.3,53.8,262.7,0,394c15.8,0,31.7,0,47.5,0C91.3,262.7,135.1,131.3,178.9,0C171.8,0,168.3,0,161.3,0z"/>
</svg>
