<?xml version="1.0" encoding="utf-8"?>
<svg version="1.1" id="Calque_1" xmlns="http://www.w3.org/2000/svg" x="0px"
     y="0px"
     viewBox="0 0 512 512" enable-background="new 0 0 512 512" xml:space="preserve">
<title>autres</title>
    <path d="M499.5,439L388.2,327.7c-0.6-0.6-1.3-1-1.9-1.5C408.2,293,421,253.2,421,210.5C421,94.2,326.7,0,210.5,0
	S0,94.2,0,210.5S94.2,421,210.5,421c42.8,0,82.5-12.8,115.7-34.7c0.5,0.6,1,1.3,1.5,1.9L439,499.5c16.7,16.7,43.8,16.7,60.5,0
	C516.2,482.8,516.2,455.7,499.5,439C499.5,439,499.5,439,499.5,439z M210.5,348C134.6,348,73,286.4,73,210.5S134.6,73,210.5,73
	C286.5,73,348,134.5,348,210.5S286.5,348,210.5,348z"/>






</svg>
