<?xml version="1.0" encoding="utf-8"?>
<svg version="1.1" id="Calque_1" xmlns="http://www.w3.org/2000/svg" x="0px"
     y="0px"
     viewBox="0 0 482 512" enable-background="new 0 0 482 512" xml:space="preserve">
<title>incivilite</title>
    <path d="M157.2,6.5c2.7-5.7,9.5-8.1,15.1-5.4l3.8,1.8c5.7,2.7,8.1,9.5,5.4,15.2c-1.9,4.1-6,6.5-10.3,6.5
	c-1.6,0-3.3-0.4-4.9-1.1l-3.8-1.8C156.9,19,154.5,12.2,157.2,6.5L157.2,6.5z M296.2,111.2l-91.1,43.5c-5.7,2.7-8.1,9.5-5.4,15.2
	c1.9,4.1,6,6.5,10.3,6.5c1.6,0,3.3-0.4,4.9-1.1l91.2-43.5c5.7-2.7,8.1-9.5,5.4-15.2C308.7,110.9,301.9,108.5,296.2,111.2
	C296.2,111.2,296.2,111.2,296.2,111.2z M244.1,60.6l52.1,24.9c1.6,0.7,3.3,1.1,4.9,1.1c4.2,0,8.3-2.4,10.3-6.5
	c2.7-5.7,0.3-12.5-5.4-15.2L253.9,40c-5.7-2.7-12.4-0.3-15.2,5.4S238.5,57.9,244.1,60.6z M143.1,109.8L143.1,109.8l101-0.1
	c6.3,0,11.4-5.1,11.4-11.4c0-6.3-5.1-11.4-11.4-11.4h0l-101,0.1c-6.3,0-11.4,5.1-11.4,11.4S136.8,109.8,143.1,109.8
	C143.1,109.8,143.1,109.8,143.1,109.8z M205.1,42l3.3,1.6c1.6,0.8,3.3,1.1,4.9,1.1c4.2,0,8.3-2.4,10.3-6.5
	c2.7-5.7,0.3-12.5-5.4-15.2l-3.3-1.6c-5.7-2.7-12.4-0.3-15.1,5.4S199.4,39.3,205.1,42L205.1,42z M96,109.8L96,109.8h4.2
	c6.3,0,11.4-5.1,11.4-11.4c0-6.3-5.1-11.4-11.4-11.4c0,0,0,0,0,0H96c-6.3,0-11.4,5.1-11.4,11.4S89.7,109.8,96,109.8L96,109.8z
	 M166.4,173.2l-3.8,1.8c-5.7,2.7-8.1,9.5-5.4,15.2c2,4.1,6.1,6.5,10.3,6.5c1.6,0,3.3-0.4,4.9-1.1l3.8-1.8c5.7-2.7,8.1-9.5,5.3-15.2
	S172,170.5,166.4,173.2L166.4,173.2z M418.2,320.2c-6.3,0-11.4,5.1-11.4,11.4v6.6c0,6.3,5.1,11.4,11.4,11.4
	c6.3,0,11.4-5.1,11.4-11.4v-6.6C429.6,325.3,424.4,320.2,418.2,320.2z M482,202.8v297.8c0,6.3-5.1,11.4-11.4,11.4H292.2
	c-6.3,0-11.4-5.1-11.4-11.4V202.8c0-5.5,3.9-10,9-11.1c7.1-20.9,23.4-38,44.8-48.2l5.4-51.1c0.6-5.8,5.5-10.2,11.3-10.2h60.1
	c5.8,0,10.7,4.4,11.3,10.2l5.4,51.1c21.4,10.2,37.8,27.3,44.8,48.2C478.1,192.8,482,197.4,482,202.8C482,202.8,482,202.8,482,202.8z
	 M358.4,135.5c7.4-1.6,15.1-2.4,23-2.4c7.9,0,15.6,0.8,23,2.4l-3.2-30.5h-39.6L358.4,135.5z M314.7,191.4h133.4
	c-11.3-21-37.5-35.5-66.7-35.5S326,170.5,314.7,191.4z M459.2,214.2h-29.7v77.7c0,6.3-5.1,11.4-11.4,11.4s-11.4-5.1-11.4-11.4v-40
	c-2.1,2.7-5.3,4.5-9,4.5c-6.3,0-11.4-5.1-11.4-11.4v-30.7h-82.8v275h155.7L459.2,214.2L459.2,214.2z M195.9,318.3V376h27.1
	c6.3,0,11.4,5.1,11.4,11.4s-5.1,11.4-11.4,11.4h-38.3c-0.1,0-0.3,0-0.4,0h-32.7v57.7h71.4c6.3,0,11.4,5.1,11.4,11.4
	s-5.1,11.4-11.4,11.4H11.4c-6.3,0-11.4-5.1-11.4-11.4c0-6.3,5.1-11.4,11.4-11.4h117.5v-57.7H50.1c-0.1,0-0.3,0-0.5,0H11.4
	c-6.3,0-11.4-5.1-11.4-11.4c0-6.3,5.1-11.4,11.4-11.4h27.1v-57.7H11.4c-6.3,0-11.4-5.1-11.4-11.4c0-6.3,5.1-11.4,11.4-11.4h67.9
	v-57.7H11.4c-6.3,0-11.4-5.1-11.4-11.4S5.1,215,11.4,215h103.9c6.3,0,11.4,5.1,11.4,11.4c0,6.3-5.1,11.4-11.4,11.4H102v57.7h121
	c6.3,0,11.4,5.1,11.4,11.4c0,6.3-5.1,11.4-11.4,11.4C223,318.3,195.9,318.3,195.9,318.3z M173.2,318.3H61.3V376h111.9V318.3z"/>






</svg>
