<?xml version="1.0" encoding="utf-8"?>
<svg version="1.1" id="Calque_1" xmlns="http://www.w3.org/2000/svg" x="0px"
     y="0px"
     viewBox="0 0 375 512" enable-background="new 0 0 375 512" xml:space="preserve">
<title>eclairage</title>
    <path d="M373.7,132l-41.5-66.5c-1.7-37-38.4-65.6-85-65.6c-22.6,0-44,6.9-59.7,19.1C171.8,6.9,150.5,0,127.8,0
	C81.2,0,44.5,28.6,42.8,65.6L1.3,132c-1.6,2.6-1.7,5.9-0.2,8.6c1.5,2.7,4.3,4.4,7.5,4.4h17.9c4,19.5,21.2,34.1,41.8,34.1
	s37.8-14.7,41.7-34.1h17.9c3.1,0,5.9-1.7,7.5-4.4s1.4-6-0.2-8.6L94.2,66.5c2-6,13.7-15.3,33.7-15.3c22.1,0,34.1,11.3,34.1,17.1
	v392.5c-23.5,0-42.6,19.1-42.6,42.7c0,4.7,3.8,8.5,8.5,8.5h119.3c4.7,0,8.5-3.8,8.5-8.5c0-23.6-19.1-42.7-42.6-42.7V68.3
	c0-5.8,12-17.1,34.1-17.1c20,0,31.7,9.2,33.7,15.3L239.9,132c-1.6,2.6-1.7,5.9-0.2,8.6c1.5,2.7,4.3,4.4,7.5,4.4H265
	c4,19.5,21.2,34.1,41.8,34.1s37.8-14.7,41.8-34.1h17.9c3.1,0,6-1.7,7.5-4.4C375.4,137.9,375.3,134.7,373.7,132
	C373.7,132,373.7,132,373.7,132z M68.2,162.1c-11.1,0-20.6-7.1-24.1-17.1h48.2C88.8,155,79.3,162.1,68.2,162.1
	C68.2,162.1,68.2,162.1,68.2,162.1z M306.8,162.1c-11.1,0-20.6-7.1-24.1-17.1h48.2C327.4,155,317.9,162.1,306.8,162.1L306.8,162.1z"
    />






</svg>
