<?xml version="1.0" encoding="utf-8"?>
<svg version="1.1" id="Calque_1" xmlns="http://www.w3.org/2000/svg" x="0px"
     y="0px"
     viewBox="0 0 468 512" enable-background="new 0 0 468 512" xml:space="preserve">
<title>espaces-verts</title>
    <path d="M436.6,159.7c-11.3-8.2-19.5-21-18-33.6c5-44.5-22.2-82.4-66.3-89.4c-7.8-1.2-15.6-4.6-22.7-8.4
	c-13.3-7.1-27.1-9.7-41.5-5.8c-7.7,2.2-12.5,1.2-18.6-4.4c-35.1-31.8-90-20.4-107.2,22.7c-4.9,12.4-12.2,19.6-23.7,24.3
	c-2.6,1-5.4,2.2-7.2,4.2c-5.7,6.1-11.1,4.6-18,1.7c-44.7-19-92.8,12.3-94.6,60.7c-0.3,6.9-3.1,14.4-6.8,20.4
	C-1.3,173.4-3.6,194.8,5.3,217c-6.4,16-0.8,36,15,47.6c17.3,12.7,37.3,6.1,52.7-6.2c4.3-0.4,8.7-1.3,13.3-2.7
	c9-2.8,17.1-6.1,24.7-2.4c1.2,0.9,2.4,1.7,3.7,2.4c0.3,0.3,0.7,0.5,1,0.9c0-0.1,0.1-0.1,0.1-0.2c2.5,1.3,5.1,2.4,7.7,3.2
	c14.7,52,46.4,97.7,89.9,130c-2.7,31.8-11.1,63.1-26.9,93.7c-17.6,10.8-39.1,3-57.6-2.2c-16.3-4.5-32.2-6.2-48.5-1
	c-3.4,1.1-4.9,3.8-5.1,6.5c0,0.1,0,0.1-0.1,0.2c-1.2,5.3-2.5,10.6-3.7,15.9c-1.2,4.9,2.4,8.4,6.3,9.1c0.6,0.1,1.3,0.3,2,0.3h301.6
	c2.6,0,4.5-1.2,5.7-2.8c1.7-1.3,2.9-3.4,2.9-5.8v-11c0-3.3-2.2-6.1-5.2-7c-1.2-1-2.6-1.6-4.6-1.6H289c-4.5-5.2-9.2-10.5-13.9-15.7
	c-13.2-14.5-19.1-30.7-13.1-50.3c2.1-6.8,3.6-13.9,4.4-20.9c2.5-20.9,4.9-41.9,7.3-63.2c30.6-2.9,58.2-16,79.7-38.1
	c8.9,0,16.9-2.6,23.6-7.1l2.7-0.8c14.5,11.7,36.9,12.9,53.9,6.7c15.7-5.8,29.2-21.5,29.7-38.7c0-1.6,0-3.2-0.2-4.8
	C475.3,219.3,464.1,179.6,436.6,159.7C436.6,159.7,436.6,159.7,436.6,159.7z M170.6,254.4c0.2-0.1,0.3-0.1,0.5-0.2
	c3.2-1.2,8.7,0.2,11.5,2.4c4,3.1,7.8,6.5,11.5,10c0.1,0.3,0.1,0.6,0.2,0.9c5.7,18.9,11.3,37.8,17,56.7c1.3,9.5,2.2,19,2.7,28.4
	C184.6,328.5,168.6,292.8,170.6,254.4C170.6,254.4,170.6,254.4,170.6,254.4z M280.4,309.1c1.3-3.2,2.6-6.3,4-9.5c0.4,0,0.9,0,1.4,0
	c0-1.1,0-2.2,0.1-3.3c3.8-8.5,7.9-16.7,12.5-24.7c5.9,5.2,12.1,9.9,18.6,13.7C306.1,295,293.8,303,280.4,309.1
	C280.4,309.1,280.4,309.1,280.4,309.1z"/>






</svg>
