<?xml version="1.0" encoding="utf-8"?>
<svg version="1.1" id="Calque_1" xmlns="http://www.w3.org/2000/svg" x="0px"
     y="0px"
     viewBox="0 0 512 430" enable-background="new 0 0 512 430" xml:space="preserve">
<title>administres</title>
    <path d="M308.3,73.8c23.6,14.8,40.2,39.9,43.2,69c9.6,4.5,20.4,7.1,31.6,7.1c41.4,0,75-33.5,75-74.9
	c0-41.4-33.6-75-75-75C342.2,0,308.9,33,308.3,73.8L308.3,73.8C308.3,73.8,308.3,73.8,308.3,73.8z M259.2,227.3
	c41.4,0,75-33.5,75-75c0-41.4-33.6-74.9-75-74.9c-41.4,0-75,33.5-75,75C184.3,193.7,217.8,227.3,259.2,227.3L259.2,227.3z
	 M291,232.4h-63.6c-52.9,0-95.9,43-95.9,96v77.8l0.2,1.2l5.3,1.7c50.5,15.8,94.3,21,130.5,21c70.5,0,111.4-20.1,113.9-21.4l5-2.5
	h0.5v-77.8C387,275.4,343.9,232.4,291,232.4L291,232.4C291,232.4,291,232.4,291,232.4z M415,155h-63.1c-0.7,25.2-11.5,48-28.5,64.3
	c47,14,81.4,57.6,81.4,109.1v23.9c62.3-2.3,98.2-19.9,100.6-21.1l5-2.5h0.5V251C510.9,198.1,467.8,155,415,155L415,155
	C415,155,415,155,415,155z M127.7,149.9c14.6,0,28.3-4.3,39.9-11.6c3.7-23.9,16.5-44.9,34.9-59.2c0-1.4,0.2-2.8,0.2-4.2
	c0-41.4-33.6-75-75-75S52.8,33.6,52.8,75C52.8,116.3,86.3,149.9,127.7,149.9L127.7,149.9L127.7,149.9z M195,219.4
	c-17-16.3-27.7-38.9-28.5-64c-2.3-0.2-4.7-0.4-7-0.4H95.9C43,155,0,198,0,250.9v77.8l0.2,1.2l5.3,1.7
	c40.5,12.6,76.6,18.5,108.1,20.3v-23.5C113.6,276.9,148,233.4,195,219.4L195,219.4C195,219.4,195,219.4,195,219.4z"/>
</svg>
