<?xml version="1.0" encoding="utf-8"?>
<svg version="1.1" id="Calque_1" xmlns="http://www.w3.org/2000/svg" x="0px"
     y="0px"
     viewBox="0 0 512 440" enable-background="new 0 0 512 440" xml:space="preserve">
<title>alerte</title>
    <path d="M505.4,370.3l-210-348.1C287.1,8.5,272,0,256,0s-31.1,8.5-39.4,22.2L6.6,370.3c-8.6,14.2-8.8,31.9-0.7,46.3
	C14.1,431,29.4,440,46,440h420c16.6,0,31.9-9,40.1-23.4C514.2,402.2,514,384.5,505.4,370.3z M477,400.3c-2.2,4-6.5,6.4-11,6.4H46
	c-4.6,0-8.8-2.5-11-6.4c-2.2-4-2.2-8.8,0.2-12.8l210-348.1c2.3-3.8,6.4-6.1,10.9-6.1c4.4,0,8.6,2.3,10.8,6.1l210,348.1
	C479.2,391.4,479.3,396.3,477,400.3C477,400.3,477,400.3,477,400.3z M256.1,137.1c-12.7,0-22.6,6.8-22.6,18.8
	c0,36.8,4.3,89.6,4.3,126.4c0,9.6,8.4,13.6,18.3,13.6c7.4,0,17.9-4,17.9-13.6c0-36.8,4.3-89.6,4.3-126.4
	C278.4,143.9,268.2,137.1,256.1,137.1C256.1,137.1,256.1,137.1,256.1,137.1z M256.5,317.3c-13.6,0-23.8,10.8-23.8,23.8
	c0,12.7,10.2,23.8,23.8,23.8c12.7,0,23.5-11.1,23.5-23.8C280,328.1,269.2,317.3,256.5,317.3z"/>






</svg>
