<?xml version="1.0" encoding="utf-8"?>
<!-- Generator: Adobe Illustrator 22.1.0, SVG Export Plug-In . SVG Version: 6.00 Build 0)  -->
<svg version="1.1" id="Capa_1" xmlns="http://www.w3.org/2000/svg" x="0px"
     y="0px"
     viewBox="0 0 512 512" enable-background="new 0 0 512 512" xml:space="preserve">
<g>
	<g>
		<path d="M407,241c-41.4,0-75,33.6-75,75s33.6,75,75,75s75-33.6,75-75S448.4,241,407,241z"/>
	</g>
</g>
    <g>
	<g>
		<path d="M105,0C63.6,0,30,34.6,30,76s33.6,75,75,75s75-33.6,75-75S146.4,0,105,0z"/>
	</g>
</g>
    <g>
	<g>
		<path d="M480.5,129.5c-2.5-5.2-7.8-8.5-13.5-8.5h-15.8C443.7,53.6,386.4,0,317,0h-61c-8.3,0-15,6.7-15,15
			s6.7,15,15,15c52.8,0,97.6,40.2,104.9,91H347c-5.8,0-11,3.3-13.5,8.5c-2.5,5.2-1.8,11.4,1.8,15.9l60,75c2.9,3.6,7.2,5.6,11.7,5.6
			s8.9-2.1,11.7-5.6l60-75C482.3,140.9,483,134.7,480.5,129.5z"/>
	</g>
</g>
    <g>
	<g>
		<path d="M256,482c-52.8,0-97.6-40.2-104.9-91H165c5.8,0,11-3.3,13.5-8.5c2.5-5.2,1.8-11.4-1.8-15.9l-60-75
			c-5.7-7.1-17.7-7.1-23.4,0l-60,75c-3.6,4.5-4.3,10.7-1.8,15.9c2.5,5.2,7.8,8.5,13.5,8.5h15.8c7.5,67.4,64.8,121,134.2,121h61
			c8.3,0,15-6.7,15-15S264.3,482,256,482z"/>
	</g>
</g>
    <g>
	<g>
		<path d="M480.3,391c-18.9,18.5-44.8,30-73.3,30c-28.5,0-54.3-11.5-73.3-30c-19.5,19.1-31.7,46.6-31.7,76v30
			c0,8.3,6.7,15,15,15h180c8.3,0,15-6.7,15-15v-30C512,437.6,499.8,410.1,480.3,391z"/>
	</g>
</g>
    <g>
	<g>
		<path d="M178.3,151c-18.9,18.5-44.8,30-73.3,30s-54.3-11.5-73.3-30C12.2,170.1,0,196.6,0,226v30c0,8.3,6.7,15,15,15
			h180c8.3,0,15-6.7,15-15v-30C210,196.6,197.8,170.1,178.3,151z"/>
	</g>
</g>
</svg>
