<?xml version="1.0" encoding="utf-8"?>
<svg version="1.1" id="Calque_1" xmlns="http://www.w3.org/2000/svg" x="0px"
     y="0px"
     viewBox="0 0 512 503" enable-background="new 0 0 512 503" xml:space="preserve">
<title>calendar</title>
    <path d="M125.1,117.3h7.3c11.1,0,20.2-9,20.2-20.2V20.7c0-11.1-9-20.2-20.2-20.2h-7.3c-11.1,0-20.2,9-20.2,20.2v76.4
	C105,108.2,114,117.3,125.1,117.3L125.1,117.3z M383.7,116.8h7.3c11.1,0,20.2-9,20.2-20.2V20.2C411.1,9,402.1,0,391,0h-7.3
	c-11.1,0-20.2,9-20.2,20.2v76.4C363.5,107.7,372.5,116.8,383.7,116.8C383.7,116.8,383.7,116.8,383.7,116.8z M479.2,41.5h-51.7v60.4
	c0,20.2-16.4,31.3-36.5,31.3h-7.3c-20.2,0-36.6-16.4-36.6-36.5V41.5H169v55.6c0,20.2-16.4,36.5-36.5,36.5h-7.3
	c-20.2,0-36.5-16.4-36.5-36.5V41.5H32.8C14.7,41.5,0,56.2,0,74.2v396C0,488.3,14.7,503,32.8,503h446.4c18.1,0,32.8-14.7,32.8-32.8
	v-396C512,56.2,497.3,41.5,479.2,41.5L479.2,41.5C479.2,41.5,479.2,41.5,479.2,41.5z M479.2,470.2H32.8v-299h446.4V470.2
	C479.3,470.2,479.3,470.2,479.2,470.2L479.2,470.2z M272.9,271.5h58.8c2.3,0,4.2-1.9,4.2-4.2v-51c0-2.3-1.9-4.2-4.2-4.2h-58.8
	c-2.3,0-4.2,1.9-4.2,4.2v51C268.7,269.6,270.6,271.5,272.9,271.5L272.9,271.5C272.9,271.5,272.9,271.5,272.9,271.5z M368.9,271.5
	h58.8c2.3,0,4.2-1.9,4.2-4.2v-51c0-2.3-1.9-4.2-4.2-4.2h-58.8c-2.3,0-4.2,1.9-4.2,4.2v51C364.7,269.6,366.6,271.5,368.9,271.5
	L368.9,271.5C368.9,271.5,368.9,271.5,368.9,271.5z M80.9,354.9h58.8c2.3,0,4.2-1.9,4.2-4.2v-51c0-2.3-1.9-4.2-4.2-4.2H80.9
	c-2.3,0-4.2,1.9-4.2,4.2v51C76.7,353,78.6,354.9,80.9,354.9C80.9,354.9,80.9,354.9,80.9,354.9z M176.9,354.9h58.8
	c2.3,0,4.2-1.9,4.2-4.2v-51c0-2.3-1.9-4.2-4.2-4.2h-58.8c-2.3,0-4.2,1.9-4.2,4.2v51C172.7,353,174.6,354.9,176.9,354.9L176.9,354.9z
	 M272.9,354.9h58.8c2.3,0,4.2-1.9,4.2-4.2v-51c0-2.3-1.9-4.2-4.2-4.2h-58.8c-2.3,0-4.2,1.9-4.2,4.2v51
	C268.7,353,270.6,354.9,272.9,354.9L272.9,354.9z M368.9,354.9h58.8c2.3,0,4.2-1.9,4.2-4.2v-51c0-2.3-1.9-4.2-4.2-4.2h-58.8
	c-2.3,0-4.2,1.9-4.2,4.2v51C364.7,353,366.6,354.9,368.9,354.9L368.9,354.9z M139.7,378.9H80.9c-2.3,0-4.2,1.9-4.2,4.2v51
	c0,2.3,1.9,4.2,4.2,4.2h58.8c2.3,0,4.2-1.9,4.2-4.2v-51C143.9,380.8,142,378.9,139.7,378.9L139.7,378.9z M235.7,378.9h-58.8
	c-2.3,0-4.2,1.9-4.2,4.2v51c0,2.3,1.9,4.2,4.2,4.2h58.8c2.3,0,4.2-1.9,4.2-4.2v-51C240,380.8,238,378.9,235.7,378.9L235.7,378.9z
	 M331.8,378.9h-58.8c-2.3,0-4.2,1.9-4.2,4.2v51c0,2.3,1.9,4.2,4.2,4.2h58.8c2.3,0,4.2-1.9,4.2-4.2v-51
	C336,380.8,334.1,378.9,331.8,378.9L331.8,378.9z M427.8,378.9h-58.8c-2.3,0-4.2,1.9-4.2,4.2v51c0,2.3,1.9,4.2,4.2,4.2h58.8
	c2.3,0,4.2-1.9,4.2-4.2v-51C432,380.8,430.1,378.9,427.8,378.9L427.8,378.9z"/>






</svg>
