<?xml version="1.0" encoding="utf-8"?>
<svg version="1.1" id="Calque_1" xmlns="http://www.w3.org/2000/svg" x="0px"
     y="0px"
     viewBox="0 0 512 433" enable-background="new 0 0 512 433" xml:space="preserve">
<title>devis</title>
    <path d="M393.8,393.7c0,10.7,4,20.1,11.6,27.7c7.6,7.6,17,11.6,27.7,11.6c10.7,0,20.1-4,27.7-11.6
	c7.6-7.6,11.6-17,11.6-27.7c0-10.7-4-20.1-11.6-27.7c-7.6-7.6-17-11.6-27.7-11.6c-10.7,0-20.1,4-27.7,11.6
	C397.7,373.3,393.8,382.7,393.8,393.7z"/>
    <path d="M506.1,45.3c-4-4-8.5-5.9-13.9-5.9H123c-0.3-1.4-0.6-4-1.4-7.9c-0.8-3.7-1.4-6.8-1.7-9.1
	c-0.3-2.3-1.1-5.1-2.3-8.2s-2.5-5.7-4-7.6c-1.4-2-3.7-3.4-6.2-4.8c-2.5-1.1-5.7-1.7-8.8-1.7H19.8C14.4,0,9.9,2,5.9,5.9
	S0,14.4,0,19.8s2,9.9,5.9,13.9s8.5,5.9,13.9,5.9h62.8l54.3,253.1c-0.3,0.8-2.5,4.8-6.2,11.6c-3.7,7.1-6.8,13-9.1,18.4
	c-2.3,5.4-3.4,9.3-3.4,12.2c0,5.4,2,9.9,5.9,13.9c4,4,8.5,5.9,13.9,5.9h315.1c5.4,0,9.9-2,13.9-5.9c4-4,5.9-8.5,5.9-13.9
	s-2-9.9-5.9-13.9c-4-4-8.5-5.9-13.9-5.9H170.3c4.8-9.9,7.4-16.4,7.4-19.8c0-2-0.3-4.2-0.8-6.8c-0.6-2.5-1.1-5.1-2-8.2
	c-0.8-2.8-1.1-5.1-1.4-6.5l321.1-37.6c5.1-0.6,9.3-2.8,12.7-6.5s4.8-8.2,4.8-13V59.1C512,53.7,510,49.2,506.1,45.3z"/>
    <path d="M118.2,393.7c0,10.7,4,20.1,11.6,27.7c7.6,7.6,17,11.6,27.7,11.6c10.7,0,20.1-4,27.7-11.6s11.6-17,11.6-27.7
	c0-10.7-4-20.1-11.6-27.7c-7.6-7.6-17-11.6-27.7-11.6c-10.7,0-20.1,4-27.7,11.6C122.2,373.3,118.2,382.7,118.2,393.7z"/>






</svg>
