<?xml version="1.0" encoding="utf-8"?>
<svg version="1.1" id="Calque_1" xmlns="http://www.w3.org/2000/svg" x="0px"
     y="0px"
     viewBox="0 0 512 512" enable-background="new 0 0 512 512" xml:space="preserve">
<title>discussions</title>
    <path d="M501.5,0H10.5C4.7,0,0,4.7,0,10.5v193.3c0,5.8,4.7,10.5,10.5,10.5h294.4l91.3,65.9c1.8,1.3,4,2,6.1,2
	c1.6,0,3.2-0.4,4.7-1.2c3.5-1.8,5.7-5.4,5.7-9.3v-57.5h88.8c5.8,0,10.5-4.7,10.5-10.5V10.5C512,4.7,507.3,0,501.5,0L501.5,0
	C501.5,0,501.5,0,501.5,0z M491.1,193.3h-88.8c-5.8,0-10.5,4.7-10.5,10.5v47.5l-77.5-55.9c-1.8-1.3-3.9-2-6.1-2H20.9V20.9h470.2
	L491.1,193.3C491.1,193.3,491.1,193.3,491.1,193.3z M501.5,303H207.1l-91.3-65.9c-3.2-2.3-7.4-2.6-10.9-0.9
	c-3.5,1.8-5.7,5.4-5.7,9.3V303H10.5C4.7,303,0,307.7,0,313.5v188.1c0,5.8,4.7,10.5,10.5,10.5h491.1c5.8,0,10.5-4.7,10.5-10.5V313.5
	C512,307.7,507.3,303,501.5,303C501.5,303,501.5,303,501.5,303z M491.1,491.1H20.9V323.9h88.8c5.8,0,10.5-4.7,10.5-10.5V266l77.5,56
	c1.8,1.3,3.9,2,6.1,2h287.3C491.1,323.9,491.1,491.1,491.1,491.1z M62.7,47h386.6v20.9H62.7C62.7,67.9,62.7,47,62.7,47z M62.7,88.9
	h386.6v20.9H62.7C62.7,109.8,62.7,88.9,62.7,88.9z M62.7,130.6h297.8v20.9H62.7C62.7,151.5,62.7,130.6,62.7,130.6z M130.6,365.7
	h318.7v20.9H130.6C130.6,386.6,130.6,365.7,130.6,365.7z M62.7,407.5h386.6v20.9H62.7C62.7,428.4,62.7,407.5,62.7,407.5z
	 M62.7,449.3H397v20.9H62.7C62.7,470.2,62.7,449.3,62.7,449.3z M423.1,130.6h26.1v20.9h-26.1C423.1,151.5,423.1,130.6,423.1,130.6z
	 M381.4,130.6h26.1v20.9h-26.1C381.4,151.5,381.4,130.6,381.4,130.6z M62.7,365.7h26.1v20.9H62.7C62.7,386.6,62.7,365.7,62.7,365.7z
	"/>






</svg>
