<?xml version="1.0" encoding="utf-8"?>
<svg version="1.1" id="Calque_1" xmlns="http://www.w3.org/2000/svg" x="0px"
     y="0px"
     viewBox="0 0 683 512" enable-background="new 0 0 683 512" xml:space="preserve">
<title>mairie</title>
    <path d="M145.8,205.3v2.8c0,12.9,5.1,19.5,15.3,19.5h38.9v227.6h56.9V256.7h56.9v198.5h55.5V256.7h56.9v198.5h56.9
	V227.5H522c4.6,0,8.9-2.1,12.5-6.3c3.8-4.2,5.5-8.6,5.5-13.1c0-6.5-2.3-11.6-6.9-15.3v-1.4h1.4l-179.1-93V72.1
	c9.2,4.6,24,5.3,44.5,2.1c20.3-3.2,38.9-2.1,55.6,3.5V18c-14.8-5.5-33.4-6.5-55.6-2.8c-22.2,3.7-37,2.8-44.5-2.8V9.7
	c0-6.5-4.6-9.7-13.9-9.7c-9.2,0-13.9,3.2-13.9,9.7v88.8l-179.1,92.9h8.3C148.6,193.3,144.9,198,145.8,205.3L145.8,205.3
	C145.8,205.3,145.8,205.3,145.8,205.3z M184.7,469L143,512h397.1l-41.6-43H184.7z M498.4,242.7v212.3h12.5l5.6,8.3l37.5,34.7
	l13.9,13.9H683V242.7C683,242.7,498.4,242.7,498.4,242.7z M583.1,412.1h-43.1v-41.7h43.1V412.1z M583.1,327.4h-43.1v-43h43.1V327.4z
	 M640,412.1h-27.8v-41.7H640V412.1z M640,327.4h-27.8v-43H640V327.4z M172.2,455.1h12.5V242.7H0V512h115.2l13.9-12.5l37.5-36.1
	C166.6,463.5,172.2,455.1,172.2,455.1z M70.8,412.1H43.1v-41.7h27.7V412.1z M70.8,327.4H43.1v-43h27.7V327.4z M143,412.1h-43v-41.7
	h43V412.1z M143,327.4h-43v-43h43V327.4z"/>

</svg>
