<?xml version="1.0" encoding="utf-8"?>
<svg version="1.1" id="Calque_1" xmlns="http://www.w3.org/2000/svg" x="0px"
     y="0px"
     viewBox="0 0 512 660" enable-background="new 0 0 512 660" xml:space="preserve">
<title>maire</title>
    <path d="M159.9,353.8C9.2,258.3,73.9,0,257.3,0c183.4,0,248.1,258.3,97.4,353.9c48.3-0.6,94.9,22.1,124.5,60.3
	c33.7,43.6,33.6,97.5,32.5,150.2c-55.2,49.5-124.8,83.2-201.8,94L122.8,358.2C134.8,355.3,147.3,353.7,159.9,353.8
	C159.9,353.8,159.9,353.8,159.9,353.8z M309.9,658.4c-0.1,0-0.1,0-0.2,0C309.8,658.4,309.9,658.4,309.9,658.4L309.9,658.4z
	 M122.7,358.1L122.7,358.1z M19.6,439.4c8.2-16.4,19.4-31,32.5-43.2L216.6,660c-82.8-8.6-157.9-43.5-216.4-96.2
	C-0.8,519.5,1.8,474.8,19.6,439.4C19.6,439.4,19.6,439.4,19.6,439.4z M52.1,396.1L52.1,396.1z M216.6,660L216.6,660L216.6,660z"/>

</svg>
