<?xml version="1.0" encoding="utf-8"?>
<svg version="1.1" id="Calque_1" xmlns="http://www.w3.org/2000/svg" x="0px"
     y="0px"
     viewBox="0 0 512 491" enable-background="new 0 0 512 491" xml:space="preserve">
<title>messagerie</title>
    <path d="M422.2,0H89.8C40.3,0,0,40.2,0,89.7v205c0,49.5,40.3,89.7,89.8,89.7h211.7l101.4,101.3c3.5,3.4,8,5.2,12.7,5.2
	c2.3,0,4.6-0.4,6.9-1.4c6.7-2.8,11.1-9.3,11.1-16.6v-89.3c44.1-5.6,78.4-43.4,78.4-89.1v-205C512,40.3,471.7,0,422.2,0L422.2,0
	C422.3,0,422.2,0,422.2,0z M476,294.7c0,29.7-24.1,53.8-53.8,53.8h-6.6c-9.9,0-17.9,8-17.9,18v63.2l-76-76
	c-3.4-3.3-7.9-5.2-12.7-5.2H89.7c-29.7,0-53.8-24.2-53.8-53.9v-205c0-29.7,24.2-53.8,53.8-53.8h332.5c29.7,0,53.8,24.2,53.8,53.8
	C476,89.7,476,294.7,476,294.7z M388.1,127.1H123.9c-9.9,0-17.9,8-17.9,18c0,9.9,8,18,17.9,18h264.2c9.9,0,18-8,18-18
	C406.1,135.1,398,127.1,388.1,127.1C388.1,127.1,388.1,127.1,388.1,127.1z M388.1,227.6H123.9c-9.9,0-17.9,8-17.9,17.9
	c0,9.9,8,18,17.9,18h264.2c9.9,0,18-8,18-18C406.1,235.6,398,227.6,388.1,227.6C388.1,227.6,388.1,227.6,388.1,227.6z"/>






</svg>
