<?xml version="1.0" encoding="utf-8"?>
<svg version="1.1" id="Calque_1" xmlns="http://www.w3.org/2000/svg" x="0px"
     y="0px"
     viewBox="0 0 512 452" enable-background="new 0 0 512 452" xml:space="preserve">
<title>news</title>
    <path d="M198.1,359.3h-117c-6.4,0-11.6,5.2-11.6,11.6c0,6.4,5.2,11.6,11.6,11.6h117c6.4,0,11.6-5.2,11.6-11.6
	C209.7,364.5,204.5,359.3,198.1,359.3z M373,359.3H256c-6.4,0-11.6,5.2-11.6,11.6c0,6.4,5.2,11.6,11.6,11.6h117
	c6.4,0,11.6-5.2,11.6-11.6C384.6,364.5,379.4,359.3,373,359.3z M373,69.6H81.1c-6.4,0-11.6,5.2-11.6,11.6c0,6.4,5.2,11.6,11.6,11.6
	H373c6.4,0,11.6-5.2,11.6-11.6S379.4,69.6,373,69.6z M373,127.5H256c-6.4,0-11.6,5.2-11.6,11.6c0,6.4,5.2,11.6,11.6,11.6h117
	c6.4,0,11.6-5.2,11.6-11.6C384.6,132.7,379.4,127.5,373,127.5z M373,185.4H256c-6.4,0-11.6,5.2-11.6,11.6c0,6.4,5.2,11.6,11.6,11.6
	h117c6.4,0,11.6-5.2,11.6-11.6C384.6,190.6,379.4,185.4,373,185.4z M373,243.4H256c-6.4,0-11.6,5.2-11.6,11.6s5.2,11.6,11.6,11.6
	h117c6.4,0,11.6-5.2,11.6-11.6S379.4,243.4,373,243.4z M373,301.3H256c-6.4,0-11.6,5.2-11.6,11.6s5.2,11.6,11.6,11.6h117
	c6.4,0,11.6-5.2,11.6-11.6S379.4,301.3,373,301.3z M198.1,301.3h-117c-6.4,0-11.6,5.2-11.6,11.6s5.2,11.6,11.6,11.6h117
	c6.4,0,11.6-5.2,11.6-11.6S204.5,301.3,198.1,301.3z M198.1,127.5h-117c-6.4,0-11.6,5.2-11.6,11.6v117c0,6.4,5.2,11.6,11.6,11.6h117
	c6.4,0,11.6-5.2,11.6-11.6v-117C209.7,132.7,204.5,127.5,198.1,127.5z M186.5,244.5H92.6v-93.9h93.8L186.5,244.5L186.5,244.5z
	 M488.8,57.9h-34.8V23.2c0-12.8-10.4-23.2-23.2-23.2H23.2C10.4,0,0,10.4,0,23.2v370.9C0,426,26,452,57.9,452h396.2
	c31.9,0,57.9-26,57.9-57.9V81.1C512,68.4,501.6,57.9,488.8,57.9z M488.8,394.1c0,19.2-15.6,34.8-34.8,34.8H57.9
	c-19.2,0-34.8-15.6-34.8-34.8V23.2h407.8v353.5c0,16,13,29,28.9,29c6.4,0,11.6-5.2,11.6-11.6c0-6.4-5.2-11.6-11.6-11.6
	c-3.2,0-5.8-2.6-5.8-5.8V81.1h34.8C488.8,81.1,488.8,394.1,488.8,394.1z"/>






</svg>
