<?xml version="1.0" encoding="utf-8"?>
<svg version="1.1" id="Calque_1" xmlns="http://www.w3.org/2000/svg" x="0px"
     y="0px"
     viewBox="0 0 512 510" enable-background="new 0 0 512 510" xml:space="preserve">
<title>notifications</title>
    <path d="M491.9,383.8c-46-39.9-88.6-96.1-88.6-236.4C403.3,66.1,337.2,0,256,0c-81.2,0-147.3,66.1-147.3,147.4
	c0,140.5-42.6,196.6-88.6,236.5C7.3,395,0,411,0,427.9c0,9.2,7.5,16.7,16.8,16.7h159c7.8,37.3,40.8,65.3,80.3,65.3
	c39.5,0,72.5-28.1,80.3-65.3h159c9.3,0,16.7-7.5,16.7-16.7C512,410.9,504.6,394.8,491.9,383.8L491.9,383.8
	C491.9,383.8,491.9,383.8,491.9,383.8z M256,476.4c-20.9,0-38.7-13.3-45.5-31.8h91.1C294.7,463.2,276.9,476.4,256,476.4L256,476.4z
	 M40.1,411.1c0.6-0.7,1.3-1.3,1.9-1.9c70.2-60.7,100.2-139,100.2-261.8c0-62.8,51-113.9,113.8-113.9c62.7,0,113.8,51.1,113.8,113.9
	c0,122.7,29.9,201,100.2,261.8c0.7,0.6,1.3,1.2,1.9,1.9C472,411.2,40.1,411.1,40.1,411.1z"/>






</svg>
