<?xml version="1.0" encoding="utf-8"?>
<svg version="1.1" id="Calque_1" xmlns="http://www.w3.org/2000/svg" x="0px"
     y="0px"
     viewBox="0 0 512 384" enable-background="new 0 0 512 384" xml:space="preserve">
<title>partners</title>
    <path d="M463.8,0H48C21.5,0,0,21.5,0,48V336c0,26.5,21.5,48,48,48H464c26.5,0,48-21.5,48-48V48
	C511.8,21.5,490.3,0,463.8,0L463.8,0z M176,79.9c38.7,0,70,31.3,70,70s-31.3,70-70,70s-70-31.3-70-70S137.3,79.9,176,79.9z M288,283
	c0,11.6-9.3,20.9-20.9,20.9H84.9c-11.6,0-20.9-9.3-20.9-20.9v-16.1c0-19.3,13-36,31.9-40.8l31.3-7.9c25.5,18.2,65.2,23.6,97.9,0
	l31.3,7.9c18.6,4.8,31.9,21.5,31.9,40.8V283H288z M447.8,243.8c0,6.6-5.4,12-12,12H331.9c-6.6,0-12-5.4-12-12v-8.1
	c0-6.6,5.4-12,12-12h103.9c6.6,0,12,5.4,12,12V243.8z M447.8,179.9c0,6.6-5.4,12-12,12H331.9c-6.6,0-12-5.4-12-12v-8.1
	c0-6.6,5.4-12,12-12h103.9c6.6,0,12,5.4,12,12V179.9z M447.8,115.9c0,6.6-5.4,12-12,12H331.9c-6.6,0-12-5.4-12-12v-7.9
	c0-6.6,5.4-12,12-12h103.9c6.6,0,12,5.4,12,12V115.9z"/>






</svg>
