<?xml version="1.0" encoding="utf-8"?>
<svg version="1.1" id="Calque_1" xmlns="http://www.w3.org/2000/svg" x="0px"
     y="0px"
     viewBox="0 0 385 512" enable-background="new 0 0 385 512" xml:space="preserve">
<title>sondage</title>
    <path d="M385,314.5c0-1.1-0.4-2.1-0.6-3.1c-0.1-0.4-0.1-0.9-0.2-1.3c-0.5-2-1.2-3.7-2.2-5.4c-0.2-0.4-0.5-0.9-0.8-1.3
	c-0.3-0.5-0.6-1.1-1-1.6l-80.4-126.7c-3.5-5.6-9.7-8.9-16.3-8.9h-0.1l45-45c7.6-7.6,7.6-19.8,0-27.3L240.1,5.7
	C236.4,2,231.5,0,226.4,0c-5.2,0-10.1,2-13.7,5.7L56.3,162c-7.6,7.6-7.6,19.8,0,27.3l12,12L3,304.2c-0.1,0.2-0.2,0.3-0.3,0.5
	c-0.6,1.1-1.2,2.3-1.6,3.6c-0.2,0.4-0.3,0.8-0.4,1.3c-0.3,1.2-0.5,2.3-0.6,3.6c0,0.4-0.1,0.7-0.1,1.1c0,0.1,0,0.2,0,0.2v178.2
	C0,503.3,8.6,512,19.3,512h346c10.7,0,19.4-8.7,19.4-19.3V317.1C384.9,316.3,385,315.5,385,314.5L385,314.5
	C385,314.5,385,314.5,385,314.5z M96.4,229.3l42.7,42.7h-33.7c-3.6,0-6.4,2.9-6.4,6.4c0,3.5,2.9,6.4,6.4,6.4h173.9
	c3.6,0,6.4-2.9,6.4-6.4s-2.9-6.4-6.4-6.4H177.6l67.1-67.1h28.1l57.3,90.3H54.5L96.4,229.3L96.4,229.3L96.4,229.3z M346.1,473.3H38.7
	V333.9h307.4V473.3z"/>
</svg>
