<?xml version="1.0" encoding="utf-8"?>
<svg version="1.1" id="Calque_1" xmlns="http://www.w3.org/2000/svg" x="0px"
     y="0px"
     viewBox="0 0 512 402" enable-background="new 0 0 512 402" xml:space="preserve">
<title>publicites</title>
    <path d="M498.7,13.3C489.6,4.3,479.1,0,466.3,0H45.7C33.2,0,22.4,4.5,13.3,13.3C4.3,22.4,0,32.9,0,45.7v310.6
	c0,12.5,4.5,23.3,13.3,32.3c9.1,9.1,19.6,13.3,32.4,13.3h420.6c12.5,0,23.3-4.5,32.4-13.3c9.1-9.1,13.3-19.6,13.3-32.3V45.7
	C512,32.9,507.5,22.1,498.7,13.3z M475.4,356.3c0,2.6-0.9,4.5-2.8,6.5c-1.7,1.7-4,2.8-6.5,2.8H45.7c-2.6,0-4.5-0.9-6.5-2.8
	c-1.7-1.7-2.8-4-2.8-6.5V118.6c0-2.6,0.9-4.5,2.8-6.5c1.7-1.7,4-2.8,6.5-2.8h420.6c2.6,0,4.5,0.9,6.5,2.8c1.7,1.7,2.8,4,2.8,6.5
	v237.7H475.4z"/>
    <path d="M100.8,292.2H82.6c-2.6,0-4.5,0.9-6.5,2.8c-1.7,1.7-2.8,4-2.8,6.5v18.2c0,2.6,0.9,4.5,2.8,6.5
	c1.7,1.7,4,2.8,6.5,2.8h18.2c2.6,0,4.5-0.9,6.5-2.8c1.7-1.7,2.8-4,2.8-6.5v-18.2c0-2.6-0.9-4.5-2.8-6.5
	C105.3,293.1,103,292.2,100.8,292.2z"/>
    <path d="M100.8,219.3H82.6c-2.6,0-4.5,0.9-6.5,2.8c-1.7,1.7-2.8,4-2.8,6.5v18.2c0,2.6,0.9,4.5,2.8,6.5
	c1.7,1.7,4,2.8,6.5,2.8h18.2c2.6,0,4.5-0.9,6.5-2.8c1.7-1.7,2.8-4,2.8-6.5v-18.2c0-2.6-0.9-4.5-2.8-6.5
	C105.3,220.1,103,219.3,100.8,219.3z"/>
    <path d="M100.8,146.1H82.6c-2.6,0-4.5,0.9-6.5,2.8c-1.7,1.7-2.8,4-2.8,6.5v18.2c0,2.6,0.9,4.5,2.8,6.5
	c1.7,1.7,4,2.8,6.5,2.8h18.2c2.6,0,4.5-0.9,6.5-2.8c1.7-1.7,2.8-4,2.8-6.5v-18.2c0-2.6-0.9-4.5-2.8-6.5
	C105.3,147,103,146.1,100.8,146.1z"/>
    <path d="M429.7,292.2H155.5c-2.6,0-4.5,0.9-6.5,2.8c-1.7,1.7-2.8,4-2.8,6.5v18.2c0,2.6,0.9,4.5,2.8,6.5
	c1.7,1.7,4,2.8,6.5,2.8h274.2c2.6,0,4.5-0.9,6.5-2.8c1.7-1.7,2.8-4,2.8-6.5v-18.2c0-2.6-0.9-4.5-2.8-6.5
	C434.2,293.1,432.2,292.2,429.7,292.2z"/>
    <path d="M429.7,219.3H155.5c-2.6,0-4.5,0.9-6.5,2.8c-1.7,1.7-2.8,4-2.8,6.5v18.2c0,2.6,0.9,4.5,2.8,6.5
	c1.7,1.7,4,2.8,6.5,2.8h274.2c2.6,0,4.5-0.9,6.5-2.8c1.7-1.7,2.8-4,2.8-6.5v-18.2c0-2.6-0.9-4.5-2.8-6.5
	C434.2,220.1,432.2,219.3,429.7,219.3z"/>
    <path d="M429.7,146.1H155.5c-2.6,0-4.5,0.9-6.5,2.8c-1.7,1.7-2.8,4-2.8,6.5v18.2c0,2.6,0.9,4.5,2.8,6.5
	c1.7,1.7,4,2.8,6.5,2.8h274.2c2.6,0,4.5-0.9,6.5-2.8c1.7-1.7,2.8-4,2.8-6.5v-18.2c0-2.6-0.9-4.5-2.8-6.5
	C434.2,147,432.2,146.1,429.7,146.1z"/>






</svg>
