<?xml version="1.0" encoding="utf-8"?>
<svg version="1.1" id="Calque_1" xmlns="http://www.w3.org/2000/svg" x="0px"
     y="0px"
     viewBox="0 0 512 439" enable-background="new 0 0 512 439" xml:space="preserve">
<title>signalements</title>
    <path d="M475.4,146.2c10.1,0,18.7,3.6,25.9,10.7c7.1,7.1,10.7,15.8,10.7,25.8s-3.6,18.7-10.7,25.8
	c-7.1,7.1-15.8,10.7-25.9,10.7V329c0,9.9-3.6,18.5-10.9,25.7c-7.3,7.2-15.8,10.9-25.7,10.9c-79.4-66.1-156.8-102.2-232-108.5
	c-11.1,3.6-19.7,9.9-26,18.9c-6.3,9-9.2,18.5-8.9,28.7c0.4,10.2,4.2,19,11.4,26.4c-3.8,6.3-6,12.5-6.6,18.7
	c-0.6,6.2,0,11.7,1.7,16.5c1.7,4.9,4.9,10.1,9.6,15.7c4.7,5.6,9.2,10.4,13.7,14.3c4.5,3.9,10.3,8.7,17.6,14.4
	c-5.5,11.1-16.1,19-31.9,23.7s-31.8,5.8-48.1,3.3c-16.4-2.6-28.9-7.9-37.7-15.9c-1.3-4.4-4.1-12.7-8.4-25c-4.3-12.3-7.3-21.3-9.2-27
	c-1.8-5.7-4-14.2-6.6-25.4c-2.6-11.2-4-20.9-4.3-28.8c-0.3-8,0-17.4,1-28.1c0.9-10.7,3.1-21.3,6.3-31.5H45.7
	c-12.6,0-23.3-4.5-32.3-13.4C4.5,233.5,0,222.8,0,210.2v-54.8c0-12.6,4.5-23.3,13.4-32.3s19.7-13.4,32.3-13.4h137.1
	c82.9,0,168.2-36.5,256-109.7c9.9,0,18.5,3.6,25.7,10.9c7.2,7.2,10.9,15.8,10.9,25.7L475.4,146.2
	C475.4,146.2,475.4,146.2,475.4,146.2z M438.9,318.7V46.3c-75.1,57.5-148.2,90.2-219.4,98v77.1C291.3,229.3,364.4,261.8,438.9,318.7
	L438.9,318.7z"/>
</svg>
