<?xml version="1.0" encoding="utf-8"?>
<svg version="1.1" id="Calque_1" xmlns="http://www.w3.org/2000/svg" x="0px"
     y="0px"
     viewBox="0 0 512 512" enable-background="new 0 0 512 512" xml:space="preserve">
<title>sms</title>
    <path d="M52.8,380.6h188.3L401.2,512V380.6h57.9c29.2,0,52.8-24.1,52.8-53.9V53.9C512,24.1,488.1,0,459.2,0H52.8
	C23.6,0,0,24.1,0,53.9v272.9C0,356.5,23.9,380.6,52.8,380.6z M380.3,202.9c-20.7-7-28.4-18.2-28.4-30c0-18.5,15.8-32.7,40.5-32.7
	c11.5,0,22,2.7,28.2,5.6l-5.6,21.4c-4.6-2.4-13.1-5.6-21.7-5.6c-7.5,0-11.8,2.9-11.8,8c0,4.6,3.8,7.2,16.1,11.5
	c19,6.4,26.8,16.1,27.1,30.8c0,18.5-14.8,32.2-43.2,32.2c-13.1,0-24.7-2.9-32.2-7l5.6-22.2c5.6,3.5,17.4,7.5,26.8,7.5
	c9.4,0,13.1-3.2,13.1-8.3C395.1,209.1,392.1,206.7,380.3,202.9z M205.2,142.6l1.3,13.4h0.5c4.3-6.4,13.1-15.8,30.3-15.8
	c12.9,0,23.1,6.4,27.4,16.9h0.5c3.8-5.1,8-9.1,12.9-12.1c5.6-3.2,11.5-4.8,19-4.8c19,0,33.5,13.4,33.5,43.2v58.7h-30.3v-54.1
	c0-14.5-4.8-22.8-14.8-22.8c-7.2,0-12.3,4.8-14.2,10.7c-0.8,2.1-1.3,5.6-1.3,8v58.2h-30v-55.8c0-12.6-4.6-21.2-14.2-21.2
	c-8,0-12.6,6.2-14.5,11.3c-1.1,2.4-1.3,5.4-1.3,7.8v58.2h-30v-68.1c0-12.3-0.5-23.1-0.8-31.9C179.2,142.3,205.2,142.6,205.2,142.6z
	 M116.7,202.9c-20.7-7-28.4-18.2-28.4-30c0-18.5,15.8-32.7,40.5-32.7c11.5,0,22,2.7,28.2,5.6l-5.6,21.4c-4.6-2.4-13.1-5.6-21.7-5.6
	c-7.5,0-11.8,2.9-11.8,8c0,4.6,3.8,7.2,16.1,11.5c19,6.4,26.8,16.1,27.1,30.8c0,18.5-14.8,32.2-43.2,32.2c-13.1,0-24.7-2.9-32.2-7
	l5.6-22.2c5.6,3.5,17.4,7.5,26.8,7.5s13.1-3.2,13.1-8.3C131.2,209.1,128.2,206.7,116.7,202.9z"/>
</svg>
