<?xml version="1.0" encoding="utf-8"?>
<svg version="1.1" id="Calque_1" xmlns="http://www.w3.org/2000/svg" x="0px"
     y="0px"
     viewBox="0 0 512 384" enable-background="new 0 0 512 384" xml:space="preserve">
<title>statistiques</title>
    <path d="M512,352v32H0V0h32v352L512,352z M480,40v108.8c0,3.5-1.6,6-4.9,7.4c-3.3,1.4-6.2,0.8-8.9-1.9L436,124
	L277.7,282.2c-1.7,1.7-3.6,2.5-5.8,2.5c-2.2,0-4.1-0.8-5.7-2.5L208,224L104,328l-48-48l146.2-146.3c1.7-1.7,3.6-2.5,5.8-2.5
	s4.1,0.8,5.8,2.5L272,192L388,76l-30.3-30.2c-2.7-2.7-3.3-5.6-1.9-8.9c1.4-3.2,3.8-4.9,7.3-4.9H472c2.3,0,4.2,0.7,5.8,2.2
	C479.3,35.8,480,37.7,480,40C480,40,480,40,480,40z"/>
</svg>
