<?xml version="1.0" encoding="utf-8"?>
<svg version="1.1" id="Calque_1" xmlns="http://www.w3.org/2000/svg" x="0px"
     y="0px"
     viewBox="0 0 342 512" enable-background="new 0 0 342 512" xml:space="preserve">
<title>suggestion</title>
    <path d="M245.8,149.3c0,2.9-1.1,5.4-3.1,7.5c-2.2,2.1-4.6,3.2-7.5,3.2c-2.9,0-5.4-1.1-7.5-3.2c-2.1-2.1-3.2-4.6-3.2-7.5
	c0-10.2-6-18.1-18.1-23.7c-12-5.6-23.8-8.3-35.4-8.3c-2.9,0-5.4-1.1-7.5-3.2s-3.2-4.6-3.2-7.5s1.1-5.4,3.2-7.5
	c2.1-2.1,4.6-3.2,7.5-3.2c11.1,0,22.2,1.8,33.2,5.3c11,3.5,20.7,9.6,29.1,18C241.6,127.7,245.8,137.7,245.8,149.3
	C245.8,149.3,245.8,149.3,245.8,149.3z M299.2,149.3c0-16-3.9-30.9-11.6-44.7c-7.6-13.8-17.6-25-30-33.8
	c-12.4-8.8-26-15.7-41.1-20.7s-30.3-7.5-45.6-7.5c-15.4,0-30.6,2.5-45.6,7.5c-15,5-28.7,11.9-41.1,20.7s-22.4,20.1-30,33.8
	c-7.7,13.8-11.5,28.7-11.5,44.7c0,22.4,7.6,42.5,22.7,60c2.2,2.4,5.6,6.1,10.2,11c4.6,4.9,8,8.6,10.2,11
	c28.5,34,44.2,67.1,47.1,99.3H209c2.9-32.2,18.6-65.3,47.1-99.3c2.2-2.4,5.7-6.1,10.2-11s8-8.6,10.2-11
	C291.7,191.8,299.2,171.8,299.2,149.3C299.2,149.3,299.2,149.3,299.2,149.3z M342,149.3c0,34.5-11.5,64.2-34.4,89.3
	c-10,10.9-18.3,20.6-24.9,29s-13.2,19.1-19.9,31.8c-6.7,12.8-10.5,24.7-11.3,35.8c10.4,6.2,15.7,15.4,15.7,27.3
	c0,8.2-2.8,15.4-8.4,21.3c5.6,6,8.4,13.1,8.4,21.3c0,11.6-5,20.6-15,27c2.9,5.1,4.3,10.3,4.3,15.6c0,10.2-3.5,18.1-10.5,23.7
	S230.3,480,220,480c-4.4,9.8-11.1,17.5-20,23.3c-8.9,5.8-18.6,8.6-29,8.6s-20.1-2.9-29.1-8.6c-8.9-5.8-15.6-13.6-20-23.3
	c-10.2,0-18.9-2.8-25.9-8.3c-7-5.5-10.5-13.5-10.5-23.7c0-5.3,1.5-10.6,4.3-15.6c-10-6.5-15-15.5-15-27c0-8.2,2.8-15.3,8.3-21.3
	c-5.6-6-8.3-13.1-8.3-21.3c0-12,5.2-21.1,15.7-27.3c-0.9-11.1-4.7-23.1-11.3-35.8c-6.7-12.8-13.3-23.4-19.9-31.8s-14.9-18.1-24.9-29
	C11.4,213.6,0,183.8,0,149.3c0-22,5-42.5,14.9-61.5c9.9-19,22.9-34.8,39.1-47.4S88.3,18,108.7,10.8S149.8,0,170.9,0
	s41.9,3.6,62.3,10.8c20.4,7.2,38.7,17.1,54.8,29.7s29.2,28.4,39.1,47.3C337,106.8,342,127.3,342,149.3
	C342,149.3,342,149.3,342,149.3z"/>
</svg>
