<?xml version="1.0" encoding="utf-8"?>
<svg version="1.1" id="Calque_1" xmlns="http://www.w3.org/2000/svg" x="0px"
     y="0px"
     viewBox="0 0 512 384" enable-background="new 0 0 512 384" xml:space="preserve">
<title>switch</title>
    <path d="M512,256v54.9c0,2.5-0.9,4.6-2.7,6.4c-1.8,1.8-4,2.7-6.4,2.7H109.7v54.9c0,2.5-0.9,4.6-2.7,6.4
	c-1.8,1.8-4,2.7-6.4,2.7c-2.3,0-4.6-0.9-6.9-2.9L2.6,289.7C0.9,288,0,285.9,0,283.4c0-2.7,0.9-4.9,2.6-6.6L94,185.5
	c1.7-1.7,3.9-2.6,6.6-2.6c2.5,0,4.6,0.9,6.4,2.7c1.8,1.8,2.7,4,2.7,6.4v54.9h393.1c2.5,0,4.6,0.9,6.4,2.7
	C511.1,251.4,512,253.6,512,256C512,256.1,512,256,512,256z M512,100.6c0,2.7-0.9,4.9-2.6,6.6L418,198.6c-1.7,1.7-3.9,2.6-6.6,2.6
	c-2.5,0-4.6-0.9-6.4-2.7c-1.8-1.8-2.7-4-2.7-6.4v-54.9H9.2c-2.5,0-4.6-0.9-6.4-2.7S0,130.5,0,128V73.2c0-2.5,0.9-4.6,2.7-6.4
	c1.8-1.8,4-2.7,6.4-2.7h393.1V9.1c0-2.7,0.9-4.9,2.6-6.6c1.7-1.7,3.9-2.6,6.6-2.6c2.3,0,4.6,0.9,6.8,2.9L509.4,94
	C511.1,95.7,512,97.9,512,100.6C512,100.6,512,100.6,512,100.6z"/>
</svg>
